<?xml version="1.0" encoding="utf-8"?>
 <svg id="happyText" version="1.1"
            xmlns="http://www.w3.org/2000/svg" xmlns:xlink="http://www.w3.org/1999/xlink" xmlns:a="http://ns.adobe.com/AdobeSVGViewerExtensions/3.0/"
            x="400px" y="75px" width="600px" height="600px" viewBox="400 75 600 600" enable-background="new 0 0 1280 800" xml:space="preserve"
            >
                <defs>
                </defs>
                <!-- pour écrire happy new year 2019, nous avons besoin de dessiner chaque lettre 
                 en utilisant la balise path   -->
                
                <g id="Happy">
                    <g id="h1">
                        <g>
                                
                            <path stroke-width="4" fill="none" stroke="black" d="M550.5,137.3c-1.5,2.8-3.1,6.1-5.9,7.8c-4.4,2.7-8-0.3-9.5-4.4c-2.1-5.9-1.3-12.9,2.4-18
                                c8.6-11.9,22.7-5.1,29.5,4.8c10.8,15.8,9.1,37.9,6.8,56c-2.4,19.6-8,39.4-19.2,55.9c-5.8,8.5-13.3,16.7-22.7,21.4
                                c-11.2,5.7-22.9,3.7-33.4-2.5c-5-3-10.1-6.8-12.9-12.1c-3.8-7-1.6-14.6,2.3-21.1c2.8-4.7,6.6-9.5,11.7-11.9
                                c6.2-2.9,15.7-0.7,16.4,7.2c0.2,1.9,3.2,1.9,3,0c-0.9-10.6-13.2-13.9-21.5-9.5c-10.1,5.4-19.1,20.2-16.4,31.7
                                c2.8,11.9,16.5,20.1,27.5,23.2c13.5,3.9,26.2-1.5,36.2-10.6c20.7-18.8,29.4-47.3,32.4-74.3c1.5-13.3,2.2-27.3-1.1-40.4
                                c-2.8-11-9.7-23-21.1-26.8c-13.9-4.6-25.2,9.3-23.8,22.4c0.6,5.1,2.9,11.9,8.8,12.7c6.6,0.9,10.6-5.3,13.2-10.3
                                C554,137.1,551.4,135.6,550.5,137.3L550.5,137.3z"/>
                        </g>
                    </g>
                    <g id="h2">
                        <g>
                            <path  stroke-width="4" fill="none" stroke="black" d="M624.1,183.5c-13.7,2.8-27.3,5.8-41,8.6c-13,2.7-30.2,5.8-39.2-7c-1.1-1.6-3.7-0.1-2.6,1.5
                                c7.7,11,21.3,12,33.6,10.1c16.8-2.6,33.3-6.9,49.9-10.3C626.8,186,626,183.1,624.1,183.5L624.1,183.5z"/>
                        </g>
                    </g>
                    <g id="h3">
                        <g>
                            <path  stroke-width="4" fill="none" stroke="black" d="M633.6,122.7c-12,41.1-13.8,84.6-5.2,126.6c0.4,1.9,3.3,1.1,2.9-0.8c-8.5-41.4-6.6-84.4,5.2-125
                                C637.1,121.6,634.2,120.8,633.6,122.7L633.6,122.7z"/>
                        </g>
                    </g>
                    <g id="a2">
                        <g>
                            <path  stroke-width="4" fill="none" stroke="black" d="M667.6,183c-0.1,6.6-0.3,13.1-0.4,19.7c-0.1,4.8-1.5,11.6,0.3,16.2c3.6,9.2,12.9-2.6,15.5-6.2
                                c1.1-1.6-1.5-3.1-2.6-1.5c-1.4,2-8.2,11.5-10.4,4c-0.9-2.9,0.1-7.5,0.2-10.5c0.1-7.2,0.3-14.4,0.4-21.7
                                C670.6,181.1,667.6,181.1,667.6,183L667.6,183z"/>
                        </g>
                    </g>
                    <g id="a1">
                        <g>
                            <path  stroke-width="4" fill="none" stroke="black" d="M670.2,188c-3.4-5.1-12-7.9-17.1-3.7c-6.1,5.1-7.3,17.9-6.5,25.2c0.7,6.3,4.9,12,11.8,9.1
                                c7.2-3,10.1-10.2,11.4-17.4c0.4-1.9-2.5-2.7-2.9-0.8c-0.7,3.9-1.6,7.9-4.2,11c-1.3,1.7-4.3,4.6-6.6,4.8c-4.5,0.3-6-3.5-6.5-7.1
                                c-0.6-5.5,0.3-11.4,2.1-16.6c1.2-3.3,2.9-7.1,7-7.4c3-0.2,7.2,1.9,8.8,4.3C668.7,191.1,671.3,189.6,670.2,188L670.2,188z"/>
                        </g>
                    </g>
                    <g id="p1">
                        <g>
                            <path  stroke-width="4" fill="none" stroke="black" d="M682.3,187.3c-0.3,20.8-2.3,41.4-6.1,61.8c-1.8,9.4-3.3,19.6-6.6,28.6c-0.9,3.6-3.7,4.5-8.4,2.7
                                c-0.9-1.7-1.4-3.5-1.6-5.5c-0.3-2.7,0.2-5.4,0.8-8.1c1.1-4.4,2.9-8.5,4.7-12.6c3.9-9.3,7.8-18.5,11.7-27.8
                                c3.9-9.3,7-20,12.4-28.6c1.7-2.8,4.3-5.6,7.8-5.6c4.2-0.1,5.7,3.4,6.5,6.9c1.1,5.1,1.5,11.6-0.4,16.5c-2.1,5.5-6.5,8.8-11.8,5.5
                                c-2.8-1.8-6.1-4.7-7.3-7.9c-0.7-1.8-3.6-1-2.9,0.8c1.9,5.1,7.8,10.8,13.3,11.7c7.2,1.2,11.7-7.7,12.6-13.4
                                c0.9-6.5,1-19.5-6.6-22.5c-7.7-3-13.3,4.8-15.9,10.8c-4.7,10.7-9,21.5-13.6,32.3c-4.5,10.8-10.5,21.8-13.3,33.2
                                c-1.4,5.6-2.1,19.2,6.6,19.6c8.5,0.4,9.8-12.4,11.2-18.2c6.3-26.3,9.6-53.2,10-80.3C685.3,185.4,682.3,185.4,682.3,187.3
                                L682.3,187.3z"/>
                        </g>
                    </g>
                    <g id="p2">
                        <g>
                            <path  stroke-width="4" fill="none" stroke="black" d="M717.9,187.3c-0.3,20.8-2.3,41.4-6.1,61.8c-1.7,9-3.3,18.5-6.2,27.3c-0.3,1.2-0.8,2.4-1.4,3.5
                                c-4.9,2.7-7.7,2.1-8.4-2c-0.9-3-0.7-6.2-0.1-9.3c0.9-4.7,2.8-9.1,4.7-13.4c4-9.6,8-19.1,12-28.7c3.8-9,7-18.7,11.6-27.3
                                c3.2-6,11.9-11,14.7-1.5c1.4,4.8,1.8,11.7,0.4,16.5c-1.4,4.9-5.4,10-11,8.1c-3.3-1.1-7.4-3.8-8.7-7.2c-0.7-1.8-3.6-1-2.9,0.8
                                c1.9,4.9,8,9.3,13.2,9.9c7.8,0.9,12.3-8.3,12.9-14.6c0.6-6.3,0.6-18.7-6.9-21.4c-8-2.9-13.4,5.4-16.1,11.6
                                c-4.6,10.8-9.1,21.6-13.6,32.4c-4.6,10.9-11,22.4-13.3,34c-1.1,5.5-0.9,17.8,7.2,17.9c8.6,0.1,9.8-13.3,11.2-19.1
                                c6.1-26,9.3-52.6,9.8-79.3C721,185.4,718,185.4,717.9,187.3L717.9,187.3z"/>
                        </g>
                    </g>
                    <g id="y1">
                        <g>
                            <path  stroke-width="4" fill="none" stroke="black" d="M847,224.1c-4.3,6.1-10.6,13.4-18.8,12.7c-7.2-0.6-11.8-8.1-11.8-14.8c0-7.8,6.4-13.6,13.4-15.7
                                c7.2-2.1,14.7-0.5,21,3.4c6.4,3.9,11.8,10,15.2,16.7c4.1,8.1,3.3,16.2-1.6,23.7c-7.6,11.7-21.7,18.7-35.6,18.6
                                c-27.8-0.3-49.4-36.7-78.4-25.3c-9.8,3.9-17.4,13.4-18.2,24c-0.9,11,8.6,18.6,18.6,12.5c5.6-3.5,8.1-10.1,10.1-16.1
                                c2.9-8.8,5.3-17.7,7.6-26.6c4.5-18.1,7.8-36.5,9.9-55.1c0.2-1.7-2.7-2.1-2.9-0.4c-1.8,11.7-6.5,22.7-14.2,31.7
                                c-1.6,1.9-4,5.8-6.7,2.7c-0.4-0.5-0.6-1.4-0.9-2.1c-1-2.8-1.7-5.8-2.2-8.8c-1.1-5.7-1-11.4-1.6-17.2c-0.3-2.7-1.5-5-3.4-6.9
                                c-4.9-4.9-12.3-5.7-17.2-0.5c-1.3,1.4,0.8,3.5,2.1,2.1c4.3-4.5,10.9-2.9,14.2,1.9c2.7,3.9,1.5,11.1,2.1,15.8
                                c0.7,5.5,1.6,11.5,4,16.6c4.1,8.6,10.3,0.3,13.9-4.3c6.8-8.8,11.1-19.2,12.8-30.2c-1-0.1-2-0.3-2.9-0.4
                                c-2.1,18.3-5.4,36.4-9.8,54.3c-2.2,8.9-4.7,17.8-7.6,26.6c-1.3,4.1-2.8,8.4-5.7,11.7c-3.5,3.9-10,6.4-14.2,2.3
                                c-6.6-6.3-1.5-18.1,3.5-23.8c5.5-6.2,13.4-9.3,21.7-8.6c17.5,1.4,30.4,14.8,45.5,22.1c11.8,5.7,24.8,6.7,37.1,1.8
                                c11.1-4.3,21.5-13.4,25-25.1c3.9-12.9-5.2-26.3-15-34c-9.5-7.4-22.7-10.1-33.2-3.2c-10,6.4-12.4,20.2-3.9,28.9
                                c10.7,11,24.1-0.2,30.9-9.7C850.8,224.1,848.2,222.6,847,224.1L847,224.1z"/>
                        </g>
                    </g>
                </g>
                
                <g id="New">
                    <g id="n1">
                        <g>
                            <path  stroke-width="4" fill="none" stroke="black" d="M475.4,316.7c-2.3,3.7-5.6,7.5-9.9,8.9c-6,1.8-10.1-3.3-10.4-8.8c-0.4-7.6,6-14.2,13.2-15.9
                                c17.7-4.1,23.2,19.3,24.4,32c1.8,17.9,0,36.2-0.8,54.2c-0.8,18.4-1.6,36.8-2.5,55.2c-0.1,1.9,2.9,1.9,3,0
                                c0.9-20,1.8-40.1,2.7-60.1c0.8-18.9,2.8-38.4-0.5-57.2c-1.9-11.1-7.5-25.1-20.1-27.2c-10.8-1.8-22.4,7.2-22.5,18.4
                                c0,5.8,3.4,12,9.6,12.8c7,0.9,12.8-5.3,16.3-10.7C479,316.6,476.4,315.1,475.4,316.7L475.4,316.7z"/>
                        </g>
                    </g>
                    <g id="n2">
                        <g>
                            <path  stroke-width="4" fill="none" stroke="black" d="M496.5,359.2c1.4-12.7,4.1-25.4,9.2-37.2c4.5-10.3,10.9-21.4,20.7-27.5c5.3-3.3,12.2-4.8,18.2-2.8
                                c6.5,2.1,10.3,8,12.1,14.3c3.4,11.6,2.4,24.6,1.2,36.4c-2.5,24.4-9,48.6-6.3,73.2c1.1,9.8,3.6,19.5,8.3,28.3
                                c4.1,7.6,10.4,16.3,19.7,17.2c9.7,0.9,14.9-7.2,15.8-15.8c0.7-6.5-0.9-20.1-10.8-15.9c-1.8,0.8-0.2,3.3,1.5,2.6
                                c7.5-3.2,6.7,11.8,5.9,15.5c-1.4,6.7-6.1,11.9-13.5,10.4c-10.8-2.2-17.2-16.1-20.3-25.4c-7.2-21.5-4-44.7-0.6-66.5
                                c1.8-11.7,3.7-23.4,4.1-35.2c0.4-9.7,0.3-20.5-3.5-29.6c-7.4-17.4-27.7-16-39.7-4.3c-16.4,15.8-22.5,40.5-25,62.3
                                C493.3,361.2,496.3,361.1,496.5,359.2L496.5,359.2z"/>
                        </g>
                    </g>
                    <g id="ew">
                        <g>
                            <path  stroke-width="4" fill="none" stroke="black" d="M559.6,376c8.2,11.6,22.8-2.7,27.7-10.3c2.9-4.5,6.8-11.6,5.8-17.3c-0.9-5.2-5.8-5.1-9.2-2.2
                                c-9.4,7.9-12.7,21.4-11.1,33.2c1.2,9,7.8,28.4,20,19.7c6.4-4.5,10.2-13.2,13.1-20.1c3.7-8.6,5.9-17.7,6.8-27
                                c0.2-1.7-2.7-2.1-2.9-0.4c-1.1,8.3-2.1,16.6-3,25c-0.6,6.4-2.5,14.8,1,20.8c2.4,4.1,6.1,3.5,8.5-0.2c4.1-6.5,6.1-15.1,7.4-22.6
                                c-1-0.3-1.9-0.5-2.9-0.8c-1,6.7-2.6,15.3-0.1,22c1.4,3.7,5,6.8,9.1,4.7c5-2.6,5.7-10.7,6.6-15.4c1.6-8.7,2.3-17.5,2.2-26.3
                                c0-1.9-3-1.9-3,0c0.1,10.7-0.9,21.4-3.4,31.9c-0.7,3-1.1,4.9-4.2,6.2c-2.8,1.2-3.2,0.6-4.4-2c-0.5-1.1-0.6-2.2-0.8-3.3
                                c-0.6-5.5,0-11.4,0.9-16.8c0.3-1.9-2.6-2.7-2.9-0.8c-0.9,4.9-2.1,9.7-3.8,14.4c-0.6,1.5-1,4.1-2.2,5.3c-0.3,0.5-0.5,1.1-0.8,1.6
                                c-1.5-0.3-2.9-0.5-4.4-0.8c-1.3-1.2-0.8-6.2-0.7-7.8c0.6-11.4,2.2-22.7,3.7-34c-1-0.1-2-0.3-2.9-0.4c-1.3,13.4-5.6,26.6-12.9,38
                                c-2,3.1-4.5,6.9-8.3,7.8c-4.9,1.1-7.2-2.8-9.1-6.6c-2.5-5.1-3.8-10.7-4-16.3c-0.2-5.5,0.8-11.2,3-16.3c0.9-2,2-4,3.3-5.7
                                c1-1.3,2.1-2.6,3.3-3.7c2.7-2.5,5.1-1,5,2.7c-0.3,8.4-19.3,34.7-27.8,22.6C561.1,373,558.5,374.4,559.6,376L559.6,376z"/>
                        </g>
                    </g>
                </g>
                <g id="Year">
                    <g id="y2">
                        <g>
                            <path  stroke-width="4" fill="none" stroke="black" d="M727.7,299.2c-5.1,28.9-11.4,57.5-19,85.9c-3.8,14-7.8,27.9-12.2,41.7c-2,6.3-4.1,12.7-8,18.1
                                c-4.4,6.1-11,9.9-18.1,11.9c-10.5,2.9-29.9,4-33.2-9.8c-4.3-18.2,26.4-12.6,35.6-10.4c20.1,4.9,46.7,27.1,67.5,12.6
                                c7.1-5,10.6-15.9,3.4-22.5c-6.1-5.6-16.9-1.1-16.6,7.3c0.1,1.9,3.1,1.9,3,0c-0.2-3.9,3.3-7,7.2-6.9c3.6,0.1,6.1,2.9,7,6.2
                                c2.3,8-4.7,14.2-11.7,16.3c-13.4,4-27-3.2-38.9-8.5c-11.4-5.1-22.9-8.9-35.5-9.7c-8.5-0.5-21.5-1-24.1,9.5
                                c-2,8,3.5,15.5,10.6,18.5c9.8,4.1,22.7,2.4,32.2-1.8c9.8-4.3,15.8-12.1,19.7-22c5-12.8,8.5-26.3,12.2-39.5
                                c8.9-31.6,16.1-63.7,21.8-96.1C730.9,298.1,728,297.3,727.7,299.2L727.7,299.2z"/>
                        </g>
                    </g>
                    <g id="y3">
                        <g>
                            <path  stroke-width="4" fill="none" stroke="black" d="M652.5,320c-2.6,2.5-5.8,5.6-9.7,5.6c-3.7,0-5.7-4.7-5.2-7.9c0.4-2,1-3.9,1.9-5.7
                                c3.3-6.8,11.1-13.2,19.1-11.8c16.3,3,10.8,31.2,8.6,41.9c-2.8,13.6-7.9,28.8-4.3,42.7c2.5,9.5,10.9,18.7,21.5,17.3
                                c10.7-1.4,21.7-10.1,27.7-18.8c1.1-1.6-1.5-3.1-2.6-1.5c-7.5,10.8-25.9,24.3-37.9,12.7c-13.9-13.5-4.2-38.2-1.1-54.3
                                c2.3-11.9,5.7-31.7-5.6-40.4c-10.4-8-24.3,2-28.6,12c-2.1,4.9-3.8,12.7,2,15.8c6.1,3.2,12-1.5,16.3-5.5
                                C656.1,320.8,653.9,318.7,652.5,320L652.5,320z"/>
                        </g>
                    </g>
                    <g id="e">
                        <g>
                            <path  stroke-width="4" fill="none" stroke="black" d="M728.6,383.5c10.2-7.4,18.1-17.5,22.5-29.3c1.4-3.7,4.8-11.2,2.6-15.1c-2.3-4.2-8-0.8-10.8,1.1
                                c-10.2,7.1-15.4,20.4-17.2,32.3c-1.6,11.1,1,25.6,12.7,30.4c5.3,2.2,9.5-0.6,13.4-4c4.7-4.2,9.8-9,11.6-15.3
                                c0.5-1.9-2.4-2.7-2.9-0.8c-1.6,5.6-6.1,9.8-10.3,13.5c-1.8,1.6-4.2,4-6.8,4.2c-4.1,0.3-7.7-2.5-10.2-5.5
                                c-8.7-10.6-4.9-27.1,0.4-38.4c2.5-5.3,6-10.4,10.9-13.9c2.6-1.8,7.4-4.3,6.5,1c-0.5,2.8-1.3,5.5-2.2,8.2
                                c-4,11.7-11.7,21.8-21.7,29C725.5,382,727,384.6,728.6,383.5L728.6,383.5z"/>
                        </g>
                    </g>
                    <g id="ar">
                        <g>
                            <path  stroke-width="4" fill="none" stroke="black" d="M788.3,351.1c-8.9-1-17.1,3.3-22,10.7c-5.3,7.9-7.5,21.7-5.2,30.9c0.9,3.5,3.5,6.1,7.4,5.6
                                c5-0.6,7.5-5.9,9.6-9.7c7-12.5,10.9-26.3,14.8-40c0.5-1.9-2.3-2.6-2.9-0.8c-2.8,8.9-5.1,17.9-6.8,27c-1,5.5-3.6,13.9-0.4,19.2
                                c3.1,5,9.8,5.1,14.4,2.4c5.8-3.3,9.9-9.9,13.1-15.5c3.8-6.7,6.4-14,7.6-21.6c0.5-3.3,0.8-6.7,0.9-10.1c0-2.9,0.4-7-1.1-9.7
                                c-2.3-4.2-7.4-1.9-9.6,1.1c-3.4,4.6-4,11.9-1.9,17.2c2.8,7.1,10,5.9,15.8,3.1c7-3.4,12.4-9.2,15.4-16.3
                                c-0.9-0.4-1.8-0.8-2.7-1.2c-6.3,16.1-12.1,32.7-13.7,50c-1.1,11.7-0.5,27.3,11.7,33.2c10.8,5.2,24,0.3,30.9-8.8
                                c3.9-5.1,6.1-11.2,7.2-17.5c0.8-4.8,2.3-11.7-0.7-16c-2.4-3.5-7.3-4.7-11.2-3c-6.1,2.7-6.8,10.7-7.1,16.4c-0.1,1.9,2.9,1.9,3,0
                                c0.2-3.9,0.4-9.1,3.2-12.2c2.2-2.4,6.2-2.9,8.7-0.6c4.2,3.8,1.4,14.4,0.2,19c-3.5,13-15.4,25-30,20.9
                                c-15.2-4.3-14.1-23.7-12.4-36.1c2.1-15.5,7.4-30.3,13.1-44.8c0.6-1.6-2.1-2.7-2.7-1.2c-2.4,5.5-6.1,10.2-11.1,13.5
                                c-2.3,1.5-7,4.4-9.9,3.8c-5.6-1.2-6.4-7.7-5.5-12.3c0.3-1.7,0.7-4.2,2.1-5.3c2.4-2,4.7-0.2,5.2,2.5c0.5,2.8,0.1,6.2-0.1,9
                                c-0.5,6-1.9,12-4.2,17.6c-2.3,5.8-5.5,11.4-9.4,16.2c-2.1,2.6-4.4,5.2-7.5,6.4c-2.9,1.2-7,0.8-9.1-1.9c-1-1.2-1-3.3-1-4.8
                                c0-6.4,1.8-13.1,3.1-19.3c1.5-6.7,3.3-13.2,5.3-19.7c-1-0.3-1.9-0.5-2.9-0.8c-2.7,9.6-5.4,19.2-9.2,28.3c-1.9,4.5-4,8.8-6.5,13
                                c-0.5,0.8-0.9,1.6-1.4,2.3c-1.7,2.5-1.7,2.4-5.1,2.3c-3.5-0.2-3.4,0.1-4-2.8c-0.2-1.2-0.3-2.4-0.3-3.7
                                c-0.5-15.1,6-35.4,24.8-33.2C790.2,354.4,790.2,351.4,788.3,351.1L788.3,351.1z"/>
                        </g>
                    </g>
                </g>
                 
            </svg>


