<?xml version="1.0" encoding="utf-8"?>
<!-- Generator: Adobe Illustrator 22.1.0, SVG Export Plug-In . SVG Version: 6.00 Build 0)  -->
<svg version="1.1" id="Calque_1" xmlns="http://www.w3.org/2000/svg" xmlns:xlink="http://www.w3.org/1999/xlink" x="0px" y="0px"
	 viewBox="0 0 853 220" style="enable-background:new 0 0 853 220;" xml:space="preserve">
<style type="text/css">
	.st0{fill:#D21F43;}
	.st1{fill:none;stroke:#000000;stroke-miterlimit:10;}
	.st2{fill:#FFFFFF;}
</style>
<g>
	<rect x="476.8" y="0.3" class="st0" width="291.1" height="153.9"/>
	<line class="st1" x1="99.3" y1="154.2" x2="767.9" y2="154.2"/>
	<g>
		<path d="M127.8,35.5h17.7l22.8,86.7h-14.4l-5.3-21.2h-25.4l-5.6,21.2h-14.4L127.8,35.5z M146.3,89.9l-10-42.7h-0.2l-10.3,42.7
			H146.3z"/>
		<path d="M225.9,91.1v1.8c0,15.7-6.3,30.9-26.7,30.9c-21.8,0-28.6-14.1-28.6-45s6.8-45,28.8-45c24.6,0,26.1,18.2,26.1,27.2v1.6
			h-13.8v-1.5c0-8-2.4-17.2-12.4-16.9c-10.2,0-14.8,6.3-14.8,34.2c0,27.9,4.6,35,14.8,35c11.5,0,12.9-12.9,12.9-20.9v-1.5H225.9z"/>
		<path d="M287.1,91.1v1.8c0,15.7-6.3,30.9-26.7,30.9c-21.8,0-28.6-14.1-28.6-45s6.8-45,28.8-45c24.6,0,26.1,18.2,26.1,27.2v1.6
			h-13.8v-1.5c0-8-2.4-17.2-12.4-16.9c-10.2,0-14.8,6.3-14.8,34.2c0,27.9,4.6,35,14.8,35c11.5,0,12.9-12.9,12.9-20.9v-1.5H287.1z"/>
		<path d="M294.9,35.5h46.8v11.7h-33v24h31.1v11.7h-31.1v27.7h34v11.7h-47.8V35.5z"/>
		<path d="M362.2,95.4v2.2c0,10.6,4.6,15.9,14.2,15.9c8.7,0,13.1-6.2,13.1-12.6c0-9.1-4.6-13.1-12.4-15.4l-9.5-3.3
			c-12.6-4.9-18.1-11.4-18.1-23.8c0-15.8,10.7-24.5,26.9-24.5c22.2,0,24.5,13.8,24.5,22.8v1.9h-13.8v-1.8c0-7.9-3.5-12.5-12.1-12.5
			c-5.9,0-11.7,3.3-11.7,12.5c0,7.4,3.8,11.2,13,14.7l9.3,3.4c12.3,4.4,17.6,11,17.6,22.9c0,18.4-11.2,26.1-28.6,26.1
			c-21.5,0-26.3-14.3-26.3-26.5v-2.1H362.2z"/>
		<path d="M423.3,95.4v2.2c0,10.6,4.6,15.9,14.2,15.9c8.7,0,13.1-6.2,13.1-12.6c0-9.1-4.6-13.1-12.4-15.4l-9.5-3.3
			c-12.6-4.9-18.1-11.4-18.1-23.8c0-15.8,10.7-24.5,26.9-24.5c22.2,0,24.5,13.8,24.5,22.8v1.9h-13.8v-1.8c0-7.9-3.5-12.5-12.1-12.5
			c-5.9,0-11.7,3.3-11.7,12.5c0,7.4,3.8,11.2,13,14.7l9.3,3.4c12.3,4.4,17.6,11,17.6,22.9c0,18.4-11.2,26.1-28.6,26.1
			c-21.5,0-26.3-14.3-26.3-26.5v-2.1H423.3z"/>
		<path class="st2" d="M554.4,91.1v1.8c0,15.7-6.3,30.9-26.7,30.9c-21.8,0-28.6-14.1-28.6-45s6.8-45,28.8-45
			c24.6,0,26.1,18.2,26.1,27.2v1.6h-13.8v-1.5c0-8-2.4-17.2-12.4-16.9c-10.2,0-14.8,6.3-14.8,34.2c0,27.9,4.6,35,14.8,35
			c11.5,0,12.9-12.9,12.9-20.9v-1.5H554.4z"/>
		<path class="st2" d="M560.2,78.9c0-30.9,8.7-45,28.6-45s28.6,14.1,28.6,45s-8.7,45-28.6,45S560.2,109.8,560.2,78.9z M603.7,78.5
			c0-29.1-6.6-34.2-14.8-34.2s-14.8,5.1-14.8,34.2c0,29.9,6.6,35,14.8,35S603.7,108.4,603.7,78.5z"/>
		<path class="st2" d="M628,35.5h24.6c27.2,0,30.6,17.7,30.6,43.3c0,25.6-3.4,43.3-30.6,43.3H628V35.5z M641.8,111.8h11.4
			c11.4,0,16.1-7.5,16.1-32.9c0-24.4-4.1-32.9-16.1-32.9h-11.4V111.8z"/>
		<path class="st2" d="M693.6,35.5h46.8v11.7h-33v24h31.1v11.7h-31.1v27.7h34v11.7h-47.8V35.5z"/>
	</g>
	<g>
		<path class="st0" d="M0,78.3l65.7-29.3v11.2l-52.5,23l52.5,23v11.2L0,87.9V78.3z"/>
	</g>
	<g>
		<path class="st0" d="M853,87.9l-65.7,29.3v-11.2l52.5-23l-52.5-23V48.9L853,78.3V87.9z"/>
	</g>
	<g>
		<path d="M123.8,189.2c0-2.5-0.6-4.4-1.7-5.8c-1.2-1.4-3-2.1-5.5-2.1c-1.2,0-2.3,0.2-3.3,0.6c-0.9,0.4-1.7,0.9-2.4,1.5
			c-0.6,0.7-1.1,1.4-1.5,2.3c-0.3,0.9-0.5,1.8-0.5,2.8c0,2,0.5,3.5,1.4,4.6c1,1.1,2.2,2,3.6,2.6c1.4,0.7,3,1.2,4.7,1.7
			c1.7,0.5,3.3,1.1,4.7,1.9c1.4,0.8,2.6,1.8,3.6,3.2c1,1.3,1.4,3.2,1.4,5.5c0,2-0.3,3.7-0.9,5.1c-0.6,1.5-1.4,2.7-2.5,3.7
			c-1.1,1-2.3,1.7-3.8,2.2c-1.5,0.5-3.1,0.7-5,0.7c-3.8,0-6.7-1-8.7-3c-2-2-3-5-3-8.9v-1.2h3.6v1.5c0,2.6,0.7,4.7,2,6.2
			c1.3,1.6,3.3,2.3,6,2.3c2.6,0,4.6-0.7,6.2-2c1.6-1.3,2.4-3.4,2.4-6.2c0-1.5-0.3-2.7-0.8-3.7c-0.6-1-1.3-1.8-2.2-2.4
			c-0.9-0.6-1.9-1.2-3.1-1.6c-1.2-0.4-2.4-0.8-3.6-1.2c-1.2-0.4-2.4-0.8-3.6-1.4c-1.2-0.5-2.2-1.2-3.1-1.9c-0.9-0.8-1.6-1.8-2.2-3
			c-0.6-1.2-0.8-2.7-0.8-4.6c0-1.6,0.3-3,0.8-4.3c0.5-1.3,1.2-2.4,2.2-3.3c0.9-0.9,2.1-1.6,3.5-2.2c1.4-0.5,2.9-0.8,4.7-0.8
			c3.8,0,6.5,0.9,8.3,2.8c1.8,1.9,2.6,4.6,2.6,8.2H123.8z"/>
		<path d="M252.1,205.4c-0.3,4.6-1.4,8.2-3.4,10.6c-2,2.5-4.9,3.7-8.5,3.7c-4.1,0-7.3-1.7-9.5-5c-2.2-3.3-3.3-8.6-3.3-15.8
			c0-7.2,1.1-12.5,3.3-15.8c2.2-3.3,5.4-5,9.5-5c2,0,3.8,0.3,5.2,1c1.5,0.7,2.7,1.6,3.6,2.7c0.9,1.1,1.6,2.4,2.1,3.9
			c0.4,1.5,0.6,3.1,0.6,4.7h-3.6c0-2.7-0.7-5-2-6.7c-1.4-1.7-3.3-2.6-5.9-2.6c-1.4,0-2.7,0.3-3.9,0.9c-1.1,0.6-2.1,1.6-2.9,3
			c-0.8,1.4-1.4,3.2-1.8,5.5c-0.4,2.3-0.6,5-0.6,8.3s0.2,6,0.6,8.3c0.4,2.3,1,4.1,1.8,5.5c0.8,1.4,1.8,2.4,2.9,3
			c1.1,0.6,2.4,0.9,3.9,0.9c2.6,0,4.5-1,5.9-3c1.4-2,2.2-4.8,2.4-8.2H252.1z"/>
		<path d="M370.8,199h-15.7v20h-3.6v-40.2h3.6V196h15.7v-17.1h3.6v40.2h-3.6V199z"/>
		<path d="M474.9,199c0-7.2,1.1-12.5,3.3-15.8c2.2-3.3,5.4-5,9.5-5c4.1,0,7.3,1.7,9.5,5c2.2,3.3,3.3,8.6,3.3,15.8
			c0,7.2-1.1,12.5-3.3,15.8c-2.2,3.3-5.4,5-9.5,5c-4.1,0-7.3-1.7-9.5-5C476,211.4,474.9,206.2,474.9,199z M478.5,199
			c0,3.3,0.2,6,0.6,8.3c0.4,2.3,1,4.1,1.8,5.5c0.8,1.4,1.8,2.4,2.9,3c1.1,0.6,2.4,0.9,3.9,0.9c1.4,0,2.7-0.3,3.9-0.9
			c1.1-0.6,2.1-1.6,2.9-3c0.8-1.4,1.4-3.2,1.8-5.5c0.4-2.3,0.6-5,0.6-8.3s-0.2-6-0.6-8.3c-0.4-2.3-1-4.1-1.8-5.5
			c-0.8-1.4-1.8-2.4-2.9-3c-1.1-0.6-2.4-0.9-3.9-0.9c-1.4,0-2.7,0.3-3.9,0.9c-1.1,0.6-2.1,1.6-2.9,3c-0.8,1.4-1.4,3.2-1.8,5.5
			C478.7,193,478.5,195.7,478.5,199z"/>
		<path d="M600.7,199c0-7.2,1.1-12.5,3.3-15.8c2.2-3.3,5.4-5,9.5-5c4.1,0,7.3,1.7,9.5,5c2.2,3.3,3.3,8.6,3.3,15.8
			c0,7.2-1.1,12.5-3.3,15.8c-2.2,3.3-5.4,5-9.5,5c-4.1,0-7.3-1.7-9.5-5C601.8,211.4,600.7,206.2,600.7,199z M604.3,199
			c0,3.3,0.2,6,0.6,8.3c0.4,2.3,1,4.1,1.8,5.5c0.8,1.4,1.8,2.4,2.9,3c1.1,0.6,2.4,0.9,3.9,0.9c1.4,0,2.7-0.3,3.9-0.9
			c1.1-0.6,2.1-1.6,2.9-3c0.8-1.4,1.4-3.2,1.8-5.5c0.4-2.3,0.6-5,0.6-8.3s-0.2-6-0.6-8.3c-0.4-2.3-1-4.1-1.8-5.5
			c-0.8-1.4-1.8-2.4-2.9-3c-1.1-0.6-2.4-0.9-3.9-0.9c-1.4,0-2.7,0.3-3.9,0.9c-1.1,0.6-2.1,1.6-2.9,3c-0.8,1.4-1.4,3.2-1.8,5.5
			C604.5,193,604.3,195.7,604.3,199z"/>
		<path d="M726.9,178.9h3.6V216h16.7v3h-20.3V178.9z"/>
	</g>
</g>
</svg>
